<svg width="512" height="512" viewBox="0 0 135.467 135.467" xmlns="http://www.w3.org/2000/svg"><rect width="93.782" height="119.063" x="20.842" y="8.202" style="fill:#686660;fill-opacity:1;stroke-width:.206386" ry="12.562" rx="12.562"/><rect style="fill:#cfc9bc;fill-opacity:1;stroke-width:.232807" width="68.033" height="18.928" x="33.717" y="18.812" ry="2.973" rx="2.973"/><g transform="translate(4.569 2.646)"><circle style="fill:#faa750;fill-opacity:1;stroke-width:.264583" cx="83.574" cy="98.275" r="13.607"/><circle style="fill:#000;fill-opacity:1;stroke-width:.264583" cx="42.755" cy="57.455" r="13.607"/><circle style="fill:#000;fill-opacity:1;stroke-width:.264583" cx="42.755" cy="98.275" r="13.607"/><circle style="fill:#51382c;fill-opacity:1;stroke-width:.264582" cx="83.574" cy="57.455" r="13.607"/><text xml:space="preserve" style="font-style:normal;font-weight:400;font-size:10.5833px;line-height:1.25;font-family:sans-serif;letter-spacing:0;word-spacing:0;fill:#000;fill-opacity:1;stroke:none;stroke-width:.264583" x="75.597" y="24.299"/></g><g style="font-size:10.5833px;line-height:1.25;letter-spacing:0;word-spacing:0;stroke-width:.264583"><path d="M92.204 25.1q-.806 0-1.214.796-.403.79-.403 2.382 0 1.587.403 2.383.408.79 1.214.79.811 0 1.215-.79.408-.796.408-2.383 0-1.591-.408-2.382-.404-.796-1.215-.796zm0-.827q1.297 0 1.98 1.029.687 1.023.687 2.976 0 1.948-.688 2.977-.682 1.023-1.979 1.023-1.297 0-1.984-1.023-.682-1.029-.682-2.977 0-1.953.682-2.976.687-1.029 1.984-1.029z" style="stroke:none;fill:#000;fill-opacity:1" aria-label="0"/></g></svg>
