<?xml version="1.0" standalone="no"?>
<!DOCTYPE svg PUBLIC "-//W3C//DTD SVG 20010904//EN"
 "http://www.w3.org/TR/2001/REC-SVG-20010904/DTD/svg10.dtd">
<svg version="1.0" xmlns="http://www.w3.org/2000/svg"
 width="700.000000pt" height="700.000000pt" viewBox="0 0 700.000000 700.000000"
 preserveAspectRatio="xMidYMid meet">
<metadata>
Created by potrace 1.14, written by Peter Selinger 2001-2017
</metadata>
<g transform="translate(0.000000,700.000000) scale(0.100000,-0.100000)"
fill="#000000" stroke="none">
<path d="M1608 6564 c-272 -51 -486 -272 -524 -543 -4 -25 -7 -1153 -8 -2506
-1 -2732 -5 -2572 68 -2728 86 -181 261 -312 466 -351 91 -17 3732 -15 3802 2
158 39 266 109 382 247 44 52 97 170 114 257 16 76 17 275 16 2548 0 1356 -4
2492 -8 2525 -32 263 -232 480 -504 547 -69 17 -3714 18 -3804 2z m3584 -566
c66 -50 65 -48 64 -468 -1 -366 -2 -379 -22 -406 -11 -15 -33 -37 -48 -48
l-27 -21 -1659 0 -1659 0 -27 21 c-15 11 -37 33 -48 48 -20 27 -21 40 -22 404
-1 344 0 380 17 413 20 39 39 59 78 75 19 9 466 11 1672 10 l1646 -1 35 -27z
m-2616 -1412 c270 -58 479 -253 550 -515 9 -31 17 -101 19 -156 6 -199 -61
-370 -200 -510 -93 -93 -160 -135 -282 -178 -79 -27 -101 -30 -208 -31 -81 0
-140 5 -181 16 -254 69 -443 258 -510 509 -17 67 -24 224 -12 296 47 279 272
507 559 567 58 12 213 13 265 2z m2134 -5 c96 -25 195 -70 260 -119 189 -142
291 -353 285 -587 -9 -314 -219 -578 -525 -661 -87 -24 -262 -24 -348 0 -131
35 -229 92 -322 186 -69 69 -83 87 -119 153 -61 109 -90 229 -86 360 7 300
197 553 486 651 99 34 273 41 369 17z m-2089 -2115 c134 -36 267 -119 353
-219 49 -56 55 -64 92 -133 114 -208 106 -478 -18 -689 -87 -147 -250 -272
-408 -315 -75 -20 -82 -21 -175 -24 -338 -12 -632 218 -707 554 -19 83 -16
235 6 319 71 267 302 481 561 518 22 3 41 7 43 8 10 9 205 -6 253 -19z m2112
0 c148 -40 294 -140 384 -262 50 -68 103 -177 119 -245 4 -19 9 -41 11 -49 2
-8 5 -57 7 -109 12 -402 -312 -726 -715 -715 -52 1 -103 5 -114 7 -226 52
-407 190 -502 382 -75 152 -91 365 -38 520 26 76 70 165 105 210 106 139 301
257 450 272 25 3 46 7 48 8 10 9 195 -6 245 -19z"/>
<path d="M4702 5730 c-91 -56 -101 -296 -16 -372 52 -46 150 -25 188 41 25 43
33 161 16 231 -14 58 -56 109 -92 111 -13 1 -33 3 -45 4 -12 1 -35 -6 -51 -15z
m107 -47 c12 -10 24 -29 27 -43 11 -45 13 -147 4 -186 -9 -40 -49 -84 -72 -80
-63 11 -79 40 -84 148 -3 83 6 130 32 159 21 24 65 24 93 2z"/>
</g>
</svg>
